<?xml version="1.0" encoding="UTF-8"?>
<!DOCTYPE svg PUBLIC "-//W3C//DTD SVG 1.1//EN" "http://www.w3.org/Graphics/SVG/1.1/DTD/svg11.dtd">
<!-- Creator: CorelDRAW X8 -->
<svg xmlns="http://www.w3.org/2000/svg" xml:space="preserve" width="3.44mm" height="10.554mm" version="1.1" style="shape-rendering:geometricPrecision; text-rendering:geometricPrecision; image-rendering:optimizeQuality; fill-rule:evenodd; clip-rule:evenodd"
viewBox="0 0 344 1055"
 xmlns:xlink="http://www.w3.org/1999/xlink">
 <defs>
  <style type="text/css">
   <![CDATA[
    .fil0 {fill:#F46C60}
   ]]>
  </style>
 </defs>
 <g id="Layer_x0020_1">
  <metadata id="CorelCorpID_0Corel-Layer"/>
  <g id="_853608192">
   <polygon class="fil0" points="221,123 303,41 262,0 179,82 97,0 56,41 138,123 56,206 97,247 179,165 262,247 303,206 "/>
   <polygon class="fil0" points="79,1055 159,950 0,950 "/>
   <polygon class="fil0" points="265,1055 344,950 185,950 "/>
   <polygon class="fil0" points="79,791 159,897 0,897 "/>
   <polygon class="fil0" points="265,791 344,897 185,897 "/>
   <polygon class="fil0" points="221,547 303,465 262,423 179,506 97,423 56,465 138,547 56,629 97,670 179,588 262,670 303,629 "/>
  </g>
 </g>
</svg>
